<svg width="31" height="28" viewBox="0 0 31 28" fill="none" xmlns="http://www.w3.org/2000/svg">
<path d="M15.8694 18.508C16.1104 18.0873 16.3776 17.6804 16.6766 17.2935C18.0074 15.5704 19.8371 14.3031 21.8894 13.6359C22.647 12.0317 22.974 10.1988 22.8218 8.37891C20.7414 8.77217 18.9066 9.99115 17.6014 11.8629C16.2881 13.7455 15.672 16.1331 15.8694 18.508Z" fill="#E5AD23"/>
<path d="M13.5878 17.2932C13.8868 17.6804 14.1543 18.0877 14.3954 18.5083C14.5925 16.1334 13.9763 13.7455 12.6631 11.8629C11.3578 9.99083 9.52302 8.77217 7.44268 8.37891C7.29047 10.1988 7.61782 12.0314 8.37569 13.6359C10.4277 14.3034 12.2574 15.5701 13.5878 17.2932Z" fill="#E5AD23"/>
<path d="M21.8121 11.2578C20.4161 13.0652 18.4708 14.2677 16.2577 14.7135C15.9036 15.9277 15.7628 17.2183 15.8701 18.5079C16.1112 18.0873 16.3784 17.6803 16.6774 17.2934C18.0081 15.5704 19.8378 14.303 21.8901 13.6359C22.4815 12.3835 22.8066 10.9916 22.8499 9.5752C22.5668 10.163 22.2216 10.7273 21.8121 11.2578Z" fill="#E5AD23"/>
<path d="M8.45264 11.2581C8.04282 10.7273 7.69764 10.163 7.41455 9.5752C7.45818 10.9913 7.7833 12.3835 8.37495 13.6362C10.4269 14.3036 12.2567 15.5704 13.5871 17.2934C13.8861 17.6806 14.1536 18.0879 14.3946 18.5086C14.5016 17.2189 14.3609 15.928 14.0071 14.7138C11.7937 14.268 9.84866 13.0656 8.45264 11.2581Z" fill="#E5AD23"/>
<path d="M15.1021 19.9967C15.1121 20.0226 15.1227 20.0484 15.1324 20.0745C15.1421 20.0484 15.1527 20.0229 15.1628 19.9967C15.1527 19.9954 15.1424 19.9958 15.1324 19.9941C15.1227 19.9958 15.1121 19.9954 15.1021 19.9967Z" fill="#E5AD23"/>
<path d="M22.9201 22.1141C22.41 22.7746 21.8244 23.3659 21.1833 23.8849H26.492H27.1839C27.702 23.8849 28.1233 23.4633 28.1233 22.9456C28.1233 22.4275 27.702 22.0059 27.1839 22.0059H22.9994C22.9723 22.0415 22.9475 22.0788 22.9201 22.1141Z" fill="#E5AD23"/>
<path d="M22.5876 14.8784C20.6869 15.4255 19.0211 16.5496 17.7859 18.1491C16.31 20.0603 15.6429 22.3944 15.8753 24.7846C18.247 24.4057 20.3366 23.1698 21.8129 21.2586C23.2888 19.3477 23.9556 17.0135 23.7228 14.623C23.3487 14.6829 22.9828 14.7663 22.6242 14.8679C22.6121 14.8721 22.5997 14.8749 22.5876 14.8784Z" fill="#E5AD23"/>
<path d="M8.45244 21.2592C9.92839 23.1702 12.0176 24.406 14.3893 24.7849C14.6221 22.3944 13.9547 20.0606 12.4791 18.1491C11.2442 16.5502 9.57874 15.4261 7.67833 14.8787C7.66591 14.8752 7.65317 14.8724 7.64107 14.8682C7.28219 14.7663 6.91599 14.6829 6.54183 14.623C6.30937 17.0142 6.97649 19.3483 8.45244 21.2592Z" fill="#E5AD23"/>
<path d="M29.1135 25.2842H27.1838H26.4919H18.9443C17.8171 25.8102 16.5975 26.1471 15.3358 26.2611C15.3142 26.2634 15.2931 26.264 15.2718 26.264C15.2244 26.264 15.1779 26.258 15.1327 26.2487C15.0874 26.258 15.0409 26.264 14.9935 26.264C14.9725 26.264 14.9512 26.263 14.9295 26.2611C13.6679 26.1471 12.4479 25.8099 11.321 25.2842H3.86548H3.08213H1.1521C0.516823 25.2842 0 25.8013 0 26.4369C0 27.0725 0.517142 27.5893 1.1521 27.5893H29.1139C29.7495 27.5893 30.2663 27.0722 30.2663 26.4369C30.266 25.8013 29.7491 25.2842 29.1135 25.2842Z" fill="#E5AD23"/>
<path d="M3.0809 23.8849H3.86424H9.08116C8.44015 23.3659 7.85455 22.7746 7.34441 22.1141C7.31703 22.0788 7.29219 22.0415 7.26513 22.0059H3.08058C2.56248 22.0059 2.14087 22.4275 2.14087 22.9456C2.14119 23.4633 2.5628 23.8849 3.0809 23.8849Z" fill="#E5AD23"/>
<path d="M14.2446 11.7423C14.5108 12.1257 14.806 12.4928 15.1321 12.8393C15.4569 12.4941 15.7511 12.1285 16.0164 11.7464C16.1441 11.5318 16.2772 11.32 16.4199 11.1134C17.2395 9.70398 17.6758 8.10067 17.6758 6.41965C17.6758 4.00496 16.7775 1.7498 15.1321 0C13.4868 1.74948 12.5881 4.00464 12.5881 6.41965C12.5881 8.10258 13.0257 9.70685 13.8469 11.1175C13.987 11.3216 14.1185 11.5305 14.2446 11.7423Z" fill="#E5AD23"/>
<path d="M16.4202 7.85031C16.2778 8.05697 16.1444 8.26873 16.0167 8.48335C15.7515 8.86547 15.4569 9.23104 15.1324 9.57622C14.8067 9.22977 14.5112 8.86261 14.245 8.47922C14.1189 8.26746 13.9873 8.05856 13.8469 7.85445C13.2947 6.90615 12.9209 5.86868 12.7318 4.78027C12.6381 5.31588 12.5881 5.86359 12.5881 6.42053C12.5881 8.10346 13.0257 9.70774 13.8469 11.1184C13.9873 11.3222 14.1189 11.5311 14.245 11.7432C14.5112 12.1266 14.8064 12.4937 15.1324 12.8402C15.4572 12.495 15.7515 12.1294 16.0167 11.7473C16.1444 11.5327 16.2775 11.3209 16.4202 11.1143C17.2398 9.70487 17.6761 8.10155 17.6761 6.42053C17.6761 5.86359 17.6261 5.31588 17.5325 4.78027C17.344 5.86709 16.9711 6.90296 16.4202 7.85031Z" fill="#E5AD23"/>
<path d="M23.4394 14.6772C23.1216 15.8423 22.5764 16.9451 21.8125 17.9345C20.3955 19.769 18.4126 20.979 16.1578 21.4086C15.8619 22.4935 15.7629 23.6322 15.875 24.7846C18.2467 24.4057 20.3363 23.1698 21.8125 21.2586C23.2885 19.3477 23.9553 17.0135 23.7225 14.623C23.627 14.638 23.5337 14.659 23.4394 14.6772Z" fill="#E5AD23"/>
<path d="M8.41072 18.4504C7.6468 17.461 7.10132 16.3583 6.78353 15.1931C6.68927 15.175 6.59565 15.154 6.50044 15.1387C6.26766 17.5295 6.93478 19.8636 8.41104 21.7742V21.7745C9.88699 23.6855 11.9762 24.9213 14.3479 25.3002C14.46 24.1478 14.361 23.0094 14.0652 21.9242C11.8107 21.495 9.82744 20.2849 8.41072 18.4504Z" fill="#E5AD23"/>
</svg>
