<svg width="439" height="393" viewBox="0 0 439 393" fill="none" xmlns="http://www.w3.org/2000/svg">
<path d="M187.227 188.424C190.071 184.141 193.223 179.998 196.751 176.059C212.451 158.517 234.037 145.615 258.25 138.823C267.188 122.49 271.046 103.83 269.25 85.3027C244.707 89.3065 223.06 101.716 207.661 120.772C192.167 139.938 184.898 164.246 187.227 188.424Z" fill="#E5AD23"/>
<path d="M160.306 176.056C163.833 179.998 166.989 184.144 169.833 188.427C172.159 164.249 164.889 139.938 149.396 120.772C133.997 101.713 112.35 89.3065 87.8063 85.3027C86.0105 103.83 89.8725 122.487 98.8138 138.823C123.023 145.618 144.61 158.514 160.306 176.056Z" fill="#E5AD23"/>
<path d="M257.333 114.615C240.863 133.016 217.912 145.257 191.802 149.796C187.624 162.157 185.964 175.297 187.23 188.426C190.074 184.144 193.226 180.001 196.754 176.062C212.453 158.52 234.04 145.617 258.253 138.825C265.229 126.075 269.065 111.905 269.576 97.4849C266.236 103.469 262.164 109.214 257.333 114.615Z" fill="#E5AD23"/>
<path d="M99.7257 114.618C94.8907 109.214 90.8183 103.469 87.4785 97.4849C87.9932 111.902 91.8289 126.075 98.8091 138.829C123.018 145.624 144.605 158.52 160.301 176.062C163.829 180.004 166.984 184.15 169.828 188.433C171.091 175.303 169.43 162.16 165.256 149.799C139.142 145.261 116.196 133.019 99.7257 114.618Z" fill="#E5AD23"/>
<path d="M178.17 203.582C178.288 203.843 178.412 204.103 178.525 204.367C178.639 204.103 178.763 203.846 178.881 203.582C178.763 203.569 178.643 203.572 178.525 203.556C178.412 203.572 178.288 203.569 178.17 203.582Z" fill="#E5AD23"/>
<path d="M270.409 225.135C264.39 231.858 257.481 237.878 249.919 243.163H312.549H320.713C326.825 243.163 331.796 238.87 331.796 233.599C331.796 228.324 326.825 224.032 320.713 224.032H271.344C271.025 224.395 270.732 224.775 270.409 225.135Z" fill="#E5AD23"/>
<path d="M266.483 151.473C244.058 157.043 224.406 168.486 209.833 184.77C192.42 204.228 184.55 227.991 187.292 252.325C215.273 248.467 239.925 235.885 257.342 216.427C274.755 196.973 282.622 173.21 279.876 148.873C275.461 149.483 271.145 150.332 266.915 151.366C266.772 151.408 266.625 151.437 266.483 151.473Z" fill="#E5AD23"/>
<path d="M99.7228 216.434C117.136 235.888 141.784 248.47 169.765 252.328C172.512 227.991 164.637 204.231 147.228 184.77C132.659 168.493 113.011 157.049 90.5899 151.476C90.4434 151.441 90.2931 151.411 90.1504 151.369C85.9164 150.332 81.5961 149.483 77.1818 148.873C74.4393 173.216 82.3099 196.979 99.7228 216.434Z" fill="#E5AD23"/>
<path d="M343.477 257.414H320.71H312.546H223.502C210.203 262.769 195.814 266.199 180.929 267.36C180.674 267.382 180.426 267.389 180.174 267.389C179.614 267.389 179.066 267.327 178.533 267.233C177.999 267.327 177.45 267.389 176.891 267.389C176.643 267.389 176.391 267.379 176.136 267.36C161.251 266.199 146.859 262.766 133.563 257.414H45.6043H36.3624H13.5923C6.09739 257.414 0 262.678 0 269.149C0 275.62 6.10115 280.882 13.5923 280.882H343.48C350.979 280.882 357.076 275.617 357.076 269.149C357.072 262.678 350.975 257.414 343.477 257.414Z" fill="#E5AD23"/>
<path d="M36.3471 243.163H45.5889H107.137C99.5747 237.878 92.6658 231.858 86.6473 225.135C86.3243 224.775 86.0312 224.395 85.7119 224.032H36.3433C30.231 224.032 25.2568 228.324 25.2568 233.599C25.2606 238.87 30.2347 243.163 36.3471 243.163Z" fill="#E5AD23"/>
<path d="M168.056 119.544C171.197 123.448 174.68 127.186 178.527 130.713C182.359 127.198 185.83 123.477 188.959 119.587C190.466 117.402 192.036 115.246 193.719 113.142C203.389 98.7931 208.536 82.4703 208.536 65.3564C208.536 40.7732 197.938 17.8141 178.527 0C159.115 17.8109 148.513 40.7699 148.513 65.3564C148.513 82.4897 153.675 98.8223 163.364 113.184C165.017 115.262 166.569 117.389 168.056 119.544Z" fill="#E5AD23"/>
<path d="M193.723 79.9225C192.044 82.0265 190.47 84.1823 188.963 86.3673C185.834 90.2576 182.359 93.9793 178.53 97.4935C174.687 93.9663 171.201 90.2285 168.06 86.3252C166.572 84.1694 165.021 82.0427 163.364 79.9646C156.85 70.3103 152.439 59.7482 150.208 48.6675C149.103 54.1203 148.513 59.6964 148.513 65.3664C148.513 82.4998 153.675 98.8324 163.364 113.194C165.021 115.269 166.572 117.395 168.06 119.555C171.201 123.458 174.683 127.196 178.53 130.723C182.362 127.209 185.834 123.487 188.963 119.597C190.47 117.412 192.04 115.256 193.723 113.152C203.393 98.8032 208.54 82.4803 208.54 65.3664C208.54 59.6964 207.95 54.1203 206.846 48.6675C204.622 59.732 200.222 70.2779 193.723 79.9225Z" fill="#E5AD23"/>
<path d="M276.532 149.424C272.782 161.286 266.351 172.513 257.338 182.585C240.62 201.262 217.226 213.581 190.624 217.954C187.134 228.999 185.966 240.592 187.288 252.325C215.269 248.467 239.921 235.885 257.338 216.427C274.751 196.973 282.618 173.21 279.872 148.873C278.745 149.025 277.644 149.239 276.532 149.424Z" fill="#E5AD23"/>
<path d="M99.2281 187.838C90.2155 177.766 83.7801 166.539 80.0307 154.677C78.9187 154.492 77.8142 154.278 76.6909 154.123C73.9446 178.463 81.8152 202.226 99.2319 221.677V221.68C116.645 241.135 141.294 253.716 169.274 257.574C170.597 245.842 169.428 234.252 165.938 223.204C139.34 218.834 115.942 206.515 99.2281 187.838Z" fill="#E5AD23"/>
<path d="M61.3121 313.213H70.8808V345.139C70.8808 348.09 70.2176 350.653 68.8911 352.83C67.5795 355.006 65.7536 356.682 63.4136 357.86C61.0736 359.037 58.3535 359.626 55.2534 359.626C52.4961 359.626 49.9921 359.142 47.7415 358.173C45.5058 357.189 43.7322 355.699 42.4206 353.701C41.109 351.689 40.4606 349.163 40.4755 346.122H50.1113C50.1411 347.33 50.3871 348.366 50.8491 349.23C51.3261 350.08 51.9744 350.735 52.7942 351.197C53.6288 351.645 54.6125 351.868 55.7453 351.868C56.9376 351.868 57.9437 351.615 58.7634 351.108C59.5981 350.586 60.2315 349.826 60.6637 348.828C61.096 347.829 61.3121 346.599 61.3121 345.139V313.213ZM88.498 359.648C86.307 359.648 84.3545 359.268 82.6405 358.508C80.9265 357.733 79.5702 356.593 78.5715 355.088C77.5879 353.567 77.096 351.674 77.096 349.409C77.096 347.501 77.4463 345.899 78.1468 344.602C78.8473 343.306 79.8012 342.262 81.0084 341.472C82.2157 340.682 83.5869 340.086 85.1221 339.684C86.6722 339.281 88.2968 338.998 89.9959 338.834C91.9931 338.625 93.6028 338.432 94.8249 338.253C96.0471 338.059 96.9339 337.776 97.4854 337.403C98.0369 337.031 98.3126 336.479 98.3126 335.749V335.615C98.3126 334.199 97.8655 333.103 96.9712 332.328C96.0918 331.553 94.8399 331.166 93.2153 331.166C91.5012 331.166 90.1375 331.546 89.124 332.306C88.1105 333.051 87.4398 333.99 87.1119 335.123L78.3033 334.408C78.7504 332.321 79.6298 330.517 80.9414 328.997C82.253 327.462 83.9446 326.285 86.0164 325.465C88.103 324.63 90.5175 324.213 93.26 324.213C95.1678 324.213 96.9936 324.436 98.7374 324.884C100.496 325.331 102.054 326.024 103.41 326.963C104.781 327.902 105.862 329.109 106.652 330.584C107.442 332.045 107.837 333.796 107.837 335.838V359H98.8045V354.238H98.5362C97.9847 355.311 97.2469 356.258 96.3229 357.077C95.3988 357.882 94.2884 358.516 92.9917 358.978C91.695 359.425 90.1971 359.648 88.498 359.648ZM91.2255 353.075C92.6265 353.075 93.8636 352.8 94.9367 352.248C96.0099 351.682 96.852 350.922 97.4631 349.968C98.0741 349.014 98.3797 347.933 98.3797 346.726V343.082C98.0816 343.276 97.6717 343.455 97.1501 343.619C96.6433 343.768 96.0695 343.909 95.4286 344.043C94.7877 344.163 94.1468 344.274 93.5059 344.379C92.865 344.468 92.2837 344.55 91.7621 344.625C90.6442 344.789 89.668 345.049 88.8333 345.407C87.9987 345.765 87.3503 346.249 86.8883 346.86C86.4262 347.456 86.1952 348.202 86.1952 349.096C86.1952 350.393 86.6647 351.384 87.6037 352.069C88.5576 352.74 89.7649 353.075 91.2255 353.075ZM130.696 372.593C127.611 372.593 124.966 372.168 122.76 371.319C120.569 370.484 118.825 369.344 117.528 367.898C116.232 366.452 115.389 364.828 115.002 363.024L123.811 361.839C124.079 362.525 124.504 363.166 125.085 363.762C125.666 364.358 126.434 364.835 127.388 365.193C128.356 365.565 129.534 365.752 130.92 365.752C132.992 365.752 134.698 365.245 136.04 364.231C137.396 363.233 138.074 361.556 138.074 359.201V352.919H137.672C137.254 353.873 136.628 354.775 135.794 355.624C134.959 356.474 133.886 357.167 132.574 357.703C131.263 358.24 129.698 358.508 127.879 358.508C125.301 358.508 122.954 357.912 120.837 356.72C118.736 355.512 117.059 353.672 115.807 351.197C114.57 348.708 113.951 345.564 113.951 341.763C113.951 337.873 114.585 334.624 115.852 332.015C117.118 329.407 118.803 327.455 120.904 326.158C123.021 324.861 125.338 324.213 127.857 324.213C129.78 324.213 131.39 324.541 132.686 325.197C133.983 325.837 135.026 326.642 135.816 327.611C136.621 328.565 137.24 329.504 137.672 330.428H138.029V324.66H147.486V359.335C147.486 362.257 146.771 364.701 145.34 366.668C143.909 368.636 141.927 370.111 139.393 371.095C136.874 372.094 133.975 372.593 130.696 372.593ZM130.898 351.354C132.433 351.354 133.73 350.974 134.788 350.214C135.861 349.439 136.681 348.336 137.247 346.905C137.828 345.459 138.119 343.73 138.119 341.718C138.119 339.706 137.836 337.962 137.269 336.487C136.703 334.996 135.883 333.841 134.81 333.021C133.737 332.202 132.433 331.792 130.898 331.792C129.333 331.792 128.014 332.217 126.941 333.066C125.867 333.901 125.055 335.063 124.504 336.554C123.952 338.044 123.676 339.766 123.676 341.718C123.676 343.7 123.952 345.415 124.504 346.86C125.07 348.291 125.882 349.401 126.941 350.191C128.014 350.966 129.333 351.354 130.898 351.354ZM170.581 359.671C167.108 359.671 164.105 358.933 161.571 357.457C159.052 355.967 157.107 353.895 155.736 351.242C154.365 348.574 153.679 345.482 153.679 341.964C153.679 338.417 154.365 335.317 155.736 332.664C157.107 329.996 159.052 327.924 161.571 326.448C164.105 324.958 167.108 324.213 170.581 324.213C174.054 324.213 177.05 324.958 179.568 326.448C182.102 327.924 184.055 329.996 185.426 332.664C186.797 335.317 187.483 338.417 187.483 341.964C187.483 345.482 186.797 348.574 185.426 351.242C184.055 353.895 182.102 355.967 179.568 357.457C177.05 358.933 174.054 359.671 170.581 359.671ZM170.626 352.293C172.206 352.293 173.525 351.846 174.583 350.952C175.641 350.042 176.438 348.805 176.975 347.24C177.527 345.675 177.802 343.894 177.802 341.897C177.802 339.9 177.527 338.119 176.975 336.554C176.438 334.989 175.641 333.752 174.583 332.843C173.525 331.933 172.206 331.479 170.626 331.479C169.031 331.479 167.69 331.933 166.601 332.843C165.528 333.752 164.716 334.989 164.165 336.554C163.628 338.119 163.36 339.9 163.36 341.897C163.36 343.894 163.628 345.675 164.165 347.24C164.716 348.805 165.528 350.042 166.601 350.952C167.69 351.846 169.031 352.293 170.626 352.293ZM199.595 359H189.221L205.027 313.213H217.502L233.286 359H222.913L211.444 323.676H211.086L199.595 359ZM198.946 341.003H223.449V348.559H198.946V341.003ZM252.491 372.593C249.406 372.593 246.76 372.168 244.554 371.319C242.363 370.484 240.619 369.344 239.323 367.898C238.026 366.452 237.184 364.828 236.796 363.024L245.605 361.839C245.873 362.525 246.298 363.166 246.879 363.762C247.46 364.358 248.228 364.835 249.182 365.193C250.151 365.565 251.328 365.752 252.714 365.752C254.786 365.752 256.493 365.245 257.834 364.231C259.19 363.233 259.868 361.556 259.868 359.201V352.919H259.466C259.049 353.873 258.423 354.775 257.588 355.624C256.753 356.474 255.68 357.167 254.369 357.703C253.057 358.24 251.492 358.508 249.674 358.508C247.095 358.508 244.748 357.912 242.631 356.72C240.53 355.512 238.853 353.672 237.601 351.197C236.364 348.708 235.745 345.564 235.745 341.763C235.745 337.873 236.379 334.624 237.646 332.015C238.913 329.407 240.597 327.455 242.698 326.158C244.815 324.861 247.133 324.213 249.651 324.213C251.574 324.213 253.184 324.541 254.481 325.197C255.777 325.837 256.821 326.642 257.61 327.611C258.415 328.565 259.034 329.504 259.466 330.428H259.824V324.66H269.281V359.335C269.281 362.257 268.565 364.701 267.134 366.668C265.704 368.636 263.721 370.111 261.188 371.095C258.669 372.094 255.77 372.593 252.491 372.593ZM252.692 351.354C254.227 351.354 255.524 350.974 256.582 350.214C257.655 349.439 258.475 348.336 259.041 346.905C259.623 345.459 259.913 343.73 259.913 341.718C259.913 339.706 259.63 337.962 259.064 336.487C258.497 334.996 257.678 333.841 256.604 333.021C255.531 332.202 254.227 331.792 252.692 331.792C251.127 331.792 249.808 332.217 248.735 333.066C247.662 333.901 246.849 335.063 246.298 336.554C245.746 338.044 245.471 339.766 245.471 341.718C245.471 343.7 245.746 345.415 246.298 346.86C246.864 348.291 247.677 349.401 248.735 350.191C249.808 350.966 251.127 351.354 252.692 351.354ZM276.86 359V324.66H286.093V330.652H286.451C287.077 328.52 288.128 326.911 289.603 325.822C291.079 324.72 292.778 324.168 294.7 324.168C295.177 324.168 295.692 324.198 296.243 324.258C296.794 324.317 297.279 324.399 297.696 324.503V332.954C297.249 332.82 296.631 332.701 295.841 332.597C295.051 332.492 294.328 332.44 293.672 332.44C292.271 332.44 291.019 332.746 289.916 333.357C288.828 333.953 287.964 334.788 287.323 335.861C286.697 336.934 286.384 338.171 286.384 339.572V359H276.86ZM302.62 359V324.66H312.144V359H302.62ZM307.405 320.233C305.989 320.233 304.774 319.764 303.76 318.825C302.762 317.871 302.263 316.731 302.263 315.404C302.263 314.093 302.762 312.967 303.76 312.028C304.774 311.074 305.989 310.598 307.405 310.598C308.821 310.598 310.028 311.074 311.026 312.028C312.04 312.967 312.547 314.093 312.547 315.404C312.547 316.731 312.04 317.871 311.026 318.825C310.028 319.764 308.821 320.233 307.405 320.233Z" fill="#00583B"/>
</svg>
